<?xml version="1.0" encoding="UTF-8"?>
<svg id="_Слой_1" xmlns="http://www.w3.org/2000/svg" version="1.1" viewBox="0 0 400 100">
  <!-- Generator: Adobe Illustrator 29.8.1, SVG Export Plug-In . SVG Version: 2.1.1 Build 2)  -->
  <defs>
    <style>
      .st0 {
        fill: #89ac76;
      }
    </style>
  </defs>
  <g>
    <path class="st0" d="M127.27,83.73l-9.97-.14-1.37-9.14h-9.72l-1.37,9.14h-10.28c3.69-16.8,7.38-33.6,11.07-50.4h11.59c3.35,16.85,6.7,33.7,10.04,50.54h.01ZM107.22,67.61h7.63l-3.82-25.49-3.82,25.49h.01Z"/>
    <path class="st0" d="M137.03,83.59h-8.14v-50.4h7.06v30.17c3.9-10.06,7.8-20.11,11.7-30.17h6.37v50.4h-7.13v-24.26c-3.29,8.09-6.58,16.18-9.86,24.26Z"/>
    <path class="st0" d="M167.7,52.13h3.74c3.98,0,6.95,1.06,8.89,3.17s2.92,5.21,2.92,9.29v6.55c0,4.08-.97,7.18-2.92,9.29-1.94,2.11-4.91,3.17-8.89,3.17h-11.66v-50.4h20.95v7.2h-13.03v11.74h0ZM171.44,76.39c1.25,0,2.21-.33,2.88-1.01.67-.67,1.01-1.92,1.01-3.74v-7.56c0-1.82-.34-3.07-1.01-3.74-.67-.67-1.63-1.01-2.88-1.01h-3.74v17.06h3.74Z"/>
    <path class="st0" d="M187.21,45.29c0-4.08,1.03-7.21,3.1-9.4,2.06-2.18,5.04-3.28,8.93-3.28s6.86,1.09,8.93,3.28c2.06,2.19,3.1,5.32,3.1,9.4v26.21c0,4.08-1.03,7.21-3.1,9.4-2.06,2.18-5.04,3.28-8.93,3.28s-6.86-1.09-8.93-3.28c-2.06-2.18-3.1-5.32-3.1-9.4v-26.21h0ZM195.13,72c0,1.82.37,3.11,1.12,3.85.74.75,1.74,1.12,2.99,1.12s2.24-.37,2.99-1.12c.74-.74,1.12-2.03,1.12-3.85v-27.22c0-1.82-.37-3.11-1.12-3.85-.74-.74-1.74-1.12-2.99-1.12s-2.24.37-2.99,1.12c-.74.75-1.12,2.03-1.12,3.85v27.22Z"/>
    <path class="st0" d="M238.54,40.39h-9.22v30.67c0,2.54-.31,4.63-.94,6.26s-1.46,2.92-2.52,3.85c-1.06.94-2.27,1.6-3.64,1.98-1.37.38-2.8.58-4.28.58h-1.94c-.58,0-1.2-.05-1.87-.14v-7.2c.43.05.89.07,1.37.07h1.37c1.25,0,2.32-.31,3.2-.94.89-.62,1.33-1.92,1.33-3.89v-38.45h25.06v50.4h-7.92v-43.2h0Z"/>
    <path class="st0" d="M260.36,83.59h-8.14v-50.4h7.06v30.17l8.14-30.17h9.94v50.4h-7.13v-36.5l-9.86,36.5h0Z"/>
    <path class="st0" d="M280.96,33.19h24.48v7.2h-8.28v43.2h-7.92v-43.2h-8.28v-7.2Z"/>
  </g>
  <g>
    <path class="st0" d="M145.8,28.29c-1.36,1.43-4.06,3.07-5.7,2.05-1.16-.72-1.26-2.42-1.36-3.98-.1-1.63-.23-3.59,1.15-4.8,1.49-1.31,3.67-.78,4.11-.68.37.09,2.95.71,3.57,2.83.6,2.07-1.16,3.94-1.77,4.58Z"/>
    <path class="st0" d="M139.78,20.07c-.12.4-.42.42-1.18,1.13-.79.75-.83,1.07-1.1,1.06-.64-.02-1.71-1.85-.95-3.06.51-.81,1.77-1.25,2.58-.71.5.33.81,1.03.65,1.57h0Z"/>
    <path class="st0" d="M143.84,18.04c-.02.26-.11,1.71-.76,1.9-.21.06-.27-.07-.81-.12-.62-.06-.8.09-1.04.02-.73-.21-1.54-2.34-.49-3.42.73-.75,2.18-.81,2.8-.13.39.42.35,1.02.3,1.75h0Z"/>
    <path class="st0" d="M148.74,25.87c-.21-.16.14-.58.02-1.62-.12-1.07-.58-1.32-.42-1.94.15-.56.71-.99,1.25-1.11,1.03-.23,2.14.66,2.34,1.53.4,1.72-2.67,3.53-3.19,3.14Z"/>
    <path class="st0" d="M145.62,18.66c-.12.23-.78,1.53-.31,2.02.15.16.27.08.76.31.57.27.65.49.89.55.74.2,2.52-1.22,2.16-2.69-.25-1.02-1.46-1.8-2.34-1.54-.55.16-.82.69-1.15,1.35h-.01Z"/>
  </g>
</svg>